<svg xmlns:svg="http://www.w3.org/2000/svg" xmlns="http://www.w3.org/2000/svg" version="1.0" width="602.36218" height="263.09055" id="svg2965">
  <defs id="defs2967">
  </defs>
  <g id="layer1">
    <path d="M 115.83885,17.724331 L 162.22924,17.724331 C 162.22924,17.724331 162.22428,118.34327 162.22428,139.23921 C 162.22924,160.20071 153.23917,204.00377 88.954364,204.00377 C 24.690113,204.00377 17.716177,163.19763 17.716177,140.29015 L 17.716177,117.86315 L 62.570545,117.86315 C 62.570545,117.86315 62.570545,126.29728 62.570545,139.78984 C 62.570545,153.23208 71.555663,165.69389 88.4746,165.69389 C 105.3985,165.69389 115.83885,156.22866 115.83885,140.29015 C 115.83885,124.33145 115.83885,17.724331 115.83885,17.724331 L 115.83885,17.724331 z M 233.94755,68.551652 C 270.29692,68.551652 302.18916,82.494211 302.18916,146.75882 L 215.97767,146.75882 C 215.97767,167.16933 224.47735,175.58858 239.38511,175.58858 C 254.36338,175.58858 259.36617,163.6774 259.36617,163.6774 L 301.70904,163.6774 C 301.70904,182.12775 276.28511,207.0007 237.9196,206.52059 C 194.05062,206.52059 172.67456,174.12803 172.67456,140.77027 C 172.67456,107.34201 191.60468,68.551652 233.94755,68.551652 z M 259.85125,120.85476 C 259.85125,108.39295 252.89786,96.416219 236.8683,96.416219 C 221.48574,96.416219 215.97767,107.34201 215.97767,120.85476 L 259.85125,120.85476 z M 372.39802,68.551652 C 408.81825,68.551652 440.63963,82.494211 440.63963,146.75882 L 354.499,146.75882 C 354.499,167.16933 362.91294,175.58858 377.88625,175.58858 C 392.86451,175.58858 397.81699,163.6774 397.81699,163.6774 L 440.15951,163.6774 C 440.15951,182.12775 414.73593,207.0007 376.4257,206.52059 C 332.55176,206.52059 311.10519,174.12803 311.10519,140.77027 C 311.10519,107.34201 330.0555,68.551652 372.39802,68.551652 z M 398.29711,120.85476 C 398.29711,108.39295 391.32814,96.416219 375.38963,96.416219 C 359.93656,96.416219 354.49369,107.34201 354.49369,120.85476 L 398.29711,120.85476 z M 448.6429,245.36125 L 448.6429,73.509093 L 491.46554,73.509093 C 491.46554,73.509093 491.46057,76.005707 491.46057,80.462833 C 491.46554,90.908148 496.969,84.990471 497.45408,83.454447 C 497.95439,81.993896 508.39971,70.012203 529.84664,70.012203 C 551.29321,70.012203 584.64601,84.990471 584.64601,137.7737 C 584.65097,178.58019 564.73545,208.53177 530.3264,208.53177 C 511.39628,208.53177 500.44569,201.07807 497.95439,198.08645 C 495.4429,195.08952 491.96089,194.53889 491.96089,198.08645 C 491.96089,201.48732 491.96089,245.36621 491.96089,245.36621 L 448.6429,245.36125 z M 490.98577,139.23425 C 490.50565,164.65783 495.9177,178.10007 516.88451,178.10007 C 537.78046,178.10007 540.77207,155.19295 540.77207,137.7737 C 540.77207,120.37464 536.80002,103.36996 514.86801,103.36996 C 501.43109,103.36996 491.46057,113.88614 490.98577,139.23425 z " style="fill:#393e16;fill-rule:evenodd" id="_47431208"/>
  </g>
</svg>
